<?xml version="1.0" encoding="UTF-8"?>
<svg width="25px" height="22px" viewBox="0 0 25 22" version="1.1" xmlns="http://www.w3.org/2000/svg" xmlns:xlink="http://www.w3.org/1999/xlink">
    <!-- Generator: Sketch 56 (81588) - https://sketch.com -->
    <title>部门</title>
    <desc>Created with Sketch.</desc>
    <g id="页面-1" stroke="none" stroke-width="1" fill="none" fill-rule="evenodd">
        <g id="大屏展示备份" transform="translate(-1204.000000, -105.000000)" fill="#56AAFF" fill-rule="nonzero">
            <g id="部门办件排名" transform="translate(1204.000000, 102.000000)">
                <g id="部门" transform="translate(0.000000, 3.000000)">
                    <path d="M23.6308711,14.9902688 L21.9850128,14.9902688 L21.9850128,10.5517767 C21.9850128,10.227913 21.7070453,9.9765392 21.3525833,9.9765392 L13.1388557,9.9765392 L13.1388557,6.60064031 L14.7706661,6.60064031 C15.5171008,6.60064031 16.1245303,6.04853294 16.1245303,5.36844039 L16.1245303,1.23373912 C16.1245303,0.555185769 15.5171008,0 14.7722246,0 L10.2140692,0 C9.46765585,0 8.8602263,0.553646573 8.8602263,1.23376021 L8.8602263,5.3668801 C8.8602263,6.04699374 9.46765585,6.60064031 10.2140692,6.60064031 L11.8599488,6.60064031 L11.8599488,9.97807839 L3.63215201,9.97807839 C3.27769001,9.97807839 2.99972246,10.2310125 2.99972246,10.553337 L2.99972246,14.9902688 L1.35386422,14.9902688 C0.607450897,14.9902688 0,15.5439153 0,16.224029 L0,20.3571489 C0,21.0357233 0.609009394,21.5893699 1.35386422,21.5893699 L5.89795047,21.5893699 C6.64436379,21.5893699 7.25179334,21.0357233 7.25179334,20.3556097 L7.25179334,16.224029 C7.25179334,15.5439153 6.64436379,14.9902688 5.89795047,14.9902688 L4.25207088,14.9902688 L4.25207088,11.1301136 L11.8599488,11.1301136 L11.8724381,14.9887085 L10.212532,14.9887085 C9.46609735,14.9887085 8.85864646,15.5423762 8.85864646,16.2224898 L8.85864646,20.3571489 C8.85864646,21.0357233 9.46609735,21.5893699 10.2125107,21.5893699 L14.7691076,21.5893699 C15.5155209,21.5893699 16.1229718,21.0357233 16.1229718,20.3556097 L16.1229718,16.224029 C16.1229718,15.5439153 15.5155209,14.9902688 14.7691076,14.9902688 L13.1497865,14.9902688 L13.1372972,11.1316528 L20.7185952,11.1316528 L20.7185952,14.9902899 L19.0742955,14.9902899 C18.3278822,14.9902899 17.7204313,15.5439364 17.7204313,16.2240501 L17.7204313,20.35717 C17.7204313,21.0357444 18.3278822,21.5893699 19.0742955,21.5893699 L23.6308711,21.5893699 C24.3773057,21.5893699 24.9847566,21.0357444 24.9847566,20.3556308 L24.9847566,16.2240501 C24.9722673,15.5439364 24.3648164,14.9902899 23.6308924,14.9902899 L23.6308711,14.9902688 Z" id="Path"></path>
                </g>
            </g>
        </g>
    </g>
</svg>