<?xml version="1.0" encoding="UTF-8"?>
<svg width="28px" height="25px" viewBox="0 0 28 25" version="1.1" xmlns="http://www.w3.org/2000/svg" xmlns:xlink="http://www.w3.org/1999/xlink">
    <!-- Generator: Sketch 56 (81588) - https://sketch.com -->
    <title>数据异常</title>
    <desc>Created with Sketch.</desc>
    <g id="页面-1" stroke="none" stroke-width="1" fill="none" fill-rule="evenodd">
        <g id="大屏展示备份" transform="translate(-733.000000, -434.000000)" fill-rule="nonzero">
            <g id="实时数据" transform="translate(707.000000, 217.000000)">
                <g id="数据异常" transform="translate(25.000000, 215.000000)">
                    <rect id="矩形" fill="#000000" opacity="0" x="0" y="0" width="30" height="30"></rect>
                    <path d="M15,19.5673386 C14.2517148,19.5673386 13.6905009,20.12515 13.6905009,20.8688986 C13.6905009,21.6126471 14.2517148,22.1704585 15,22.1704585 C15.7482852,22.1704585 16.3094991,21.6126471 16.3094991,20.8688986 C16.3094991,20.12515 15.7482852,19.5673386 15,19.5673386 L15,19.5673386 Z M27.5337768,24.2157671 C28.4691332,22.72827 28.4691332,21.0548357 27.5337768,19.5673386 L19.1155685,5.06424164 C18.3672833,3.57674452 16.8707129,2.64705882 15.1870713,2.64705882 C13.5034296,2.64705882 12.0068593,3.57674452 11.0715028,5.06424164 L2.46622324,19.5673386 C1.53086676,21.0548357 1.53086676,22.9142071 2.46622324,24.2157671 C3.40157971,25.7032642 4.89815007,26.4470128 6.58179173,26.4470128 L23.4182083,26.4470128 C25.1018499,26.6329499 26.5984203,25.7032642 27.5337768,24.2157671 Z M25.6630638,23.2860814 C25.2889212,24.0298299 24.3535647,24.5876414 23.4182083,24.5876414 L6.58179173,24.5876414 C5.64643525,24.5876414 4.71107878,24.2157671 4.33693619,23.4720185 C3.9627936,22.72827 3.9627936,21.6126471 4.33693619,20.8688986 L12.9422158,6.36580163 C13.1292871,5.43611592 14.0646435,4.8783045 15,4.8783045 C15.9353565,4.8783045 16.8707129,5.43611592 17.2448555,6.17986449 L25.6630638,20.6829614 C26.2242777,21.42671 26.2242777,22.5423328 25.6630638,23.2860814 Z M14.6258574,10.0845444 C14.0646435,10.2704816 13.6905009,10.828293 13.6905009,11.5720415 C13.6905009,11.9439158 13.6905009,12.5017272 13.8775722,12.8736015 C14.0646435,14.5470358 14.0646435,16.0345329 14.2517148,17.7079672 C14.2517148,18.2657786 14.6258574,18.6376529 15.3741426,18.6376529 C16.1224278,18.6376529 16.4965704,18.2657786 16.4965704,17.52203 L16.4965704,16.5923443 C16.4965704,15.4767215 16.6836417,14.5470358 16.6836417,13.4314129 C16.6836417,12.6876644 16.8707129,12.129853 16.8707129,11.3861044 C16.8707129,11.0142301 16.8707129,11.0142301 16.6836417,10.6423558 C16.1224278,10.2704816 15.3741426,9.89860729 14.6258574,10.0845444 L14.6258574,10.0845444 Z" id="形状" fill="#56AAFF"></path>
                </g>
            </g>
        </g>
    </g>
</svg>