<?xml version="1.0" standalone="no"?>
<!DOCTYPE svg PUBLIC "-//W3C//DTD SVG 1.1//EN" "http://www.w3.org/Graphics/SVG/1.1/DTD/svg11.dtd" >
<!--
2013-9-30: Created.
-->
<svg>
<metadata>
Created by iconfont
</metadata>
<defs>

<font id="iconfont" horiz-adv-x="1024" >
  <font-face
    font-family="iconfont"
    font-weight="500"
    font-stretch="normal"
    units-per-em="1024"
    ascent="896"
    descent="-128"
  />
    <missing-glyph />
    
    <glyph glyph-name="biaoqian" unicode="&#58880;" d="M940.032 434.176q45.056-53.248 1.024-102.4l-317.44-318.464q-10.24-8.192-22.016-11.776t-24.064-2.56-23.04 5.12-17.92 11.264q-114.688 114.688-204.8 205.824l-75.776 76.8q-37.888 36.864-67.072 66.56t-47.616 48.128l-19.456 19.456q-2.048 2.048-6.656 8.704t-9.728 17.408-9.216 24.064-4.096 28.672l0 18.432q0 14.336 0.512 35.84t1.024 47.104 0.512 52.224q1.024 62.464 2.048 138.24 2.048 12.288 4.608 24.576t12.8 23.552q10.24 10.24 23.04 13.824t23.04 3.584l311.296 0q2.048 1.024 14.336 0.512t15.36-2.56q6.144-2.048 13.824-7.168t12.8-10.24zM241.664 659.456q26.624 0 45.056 18.432t18.432 45.056-18.432 45.056-45.056 18.432-45.568-18.432-18.944-45.056 18.944-45.056 45.568-18.432z"  horiz-adv-x="1024" />

    
    <glyph glyph-name="fuzhi" unicode="&#59050;" d="M879.04256 880.64H356.9152C289.81248 880.64 234.15808 824.99072 234.15808 757.87776H816.8448c34.37056 0 62.19264-26.99776 62.19264-61.37344v-613.7856c67.10784 0 122.76224 55.64928 122.76224 122.75712V757.87776C1001.79968 824.99072 946.1504 880.64 879.04256 880.64z m-178.41152-497.57696H149.0432V444.44672h552.41728v-61.37856h-0.82944v-0.00512z m0-184.13056H149.0432v61.37856h552.41728v-61.37856h-0.82944zM81.12128 695.68512c-33.55648 0-61.37856-27.82208-61.37856-61.37856V-40.8576c0-33.55136 27.82208-61.36832 61.37856-61.36832h675.16416c33.55648 0 61.37344 27.82208 61.37344 61.36832V635.12576c0 33.55648-27.82208 61.37856-61.37344 61.37856H81.12128v-0.8192z"  horiz-adv-x="1024" />

    
    <glyph glyph-name="dianziyinzhangguanli" unicode="&#58928;" d="M764.02 843.748H259.98c-112.841 0-204.313-91.472-204.313-204.314v-510.743c0-112.842 91.472-204.314 204.314-204.314h504.038c112.8 0 204.314 91.472 204.314 204.314V639.434c0 112.884-91.472 204.314-204.314 204.314z m42.488-650.779l-71.024-81.457h-444.37l-73.622 81.457V321.817h220.865v36.874h36.832V499.86c-27.78 13.283-47.098 41.399-47.098 74.208 0 45.548 36.916 82.505 82.505 82.505 45.548 0 82.505-36.915 82.505-82.505 0-31.678-18.101-58.872-44.29-72.7v-142.592h36.832v-36.874h220.865V192.97000000000003z"  horiz-adv-x="1024" />

    
    <glyph glyph-name="geren1" unicode="&#58911;" d="M904.961 716.589h-393.049l-30.096 60.551h-332.678l-60.372-121.104h846.474zM28.212 595.662l60.551-604.624h846.474l60.551 604.624h-967.579zM437.385 397.526c0.539 8.061 2.687 15.945 5.732 23.468 2.866 7.344 6.809 13.974 12.001 19.885 5.017 5.911 10.751 10.928 17.557 14.869 6.809 3.762 13.974 6.627 21.677 7.884 5.911 1.075 11.825 1.434 15.945 1.79 13.258-0.539 24.365-1.434 35.292-5.374 6.449-2.327 12.001-5.732 17.378-10.032 8.956-7.166 15.227-16.303 19.885-26.512 3.584-8.061 6.27-16.482 7.166-25.261 0.357-2.866 0.357-5.911 0.539-8.956l0.539-7.523c0-11.466-1.434-22.932-4.118-34.038-2.866-12.541-6.987-24.543-12.899-36.010-4.479-8.778-10.032-16.839-17.378-23.468-9.317-8.241-19.885-14.332-32.246-16.303-7.166-1.255-14.511-0.895-21.677 0.539-8.956 1.79-17.198 5.374-24.723 10.391-6.449 4.118-12.001 9.494-16.482 15.765-7.166 10.032-12.361 20.96-16.124 32.605-2.866 8.778-5.195 17.557-6.092 26.693-0.717 7.523-1.434 15.050-1.79 22.573-0.357 5.911-0.357 11.466-0.18 17.019zM668.666 125.042c-0.357-7.523-1.075-14.869-1.79-22.213-0.18-1.434-0.357-3.762-1.075-3.94-1.614-0.717-3.762-0.357-5.553-0.357-1.075 0-2.15 0.357-3.225 0.357h-126.3l-168.221-1.075c-4.3 0-4.3 0-4.837 3.94-0.717 5.911-1.614 11.825-1.79 17.734-0.357 7.344-0.895 14.691-0.357 22.034 0.357 6.987 1.79 13.974 3.045 20.782 1.79 9.853 5.553 18.991 10.391 27.769 4.118 7.523 8.778 14.691 14.869 20.96 4.837 4.837 9.674 9.674 14.869 14.332 2.509 2.327 5.732 3.94 8.778 5.553 13.076 7.344 26.693 13.258 41.026 17.198 8.956 2.509 18.095 4.479 27.232 6.092 7.703 1.255 15.406 1.969 23.109 2.327 7.166 0.539 14.511 0.717 21.677 0.539 6.449-0.18 12.899-1.075 19.529-1.79 11.107-1.075 22.034-3.403 32.963-6.092 10.391-2.687 20.602-5.911 30.275-10.391 6.987-3.225 13.793-6.809 20.423-10.751 3.584-2.15 6.27-5.374 9.317-8.241 3.045-2.866 6.092-5.911 8.956-8.956 7.523-8.421 13.615-17.734 18.095-28.126 3.403-8.061 5.732-16.482 7.344-24.901 0.895-4.837 1.255-9.674 1.434-14.511-0.18-6.092 0-12.181-0.18-18.273z"  horiz-adv-x="1024" />

    
    <glyph glyph-name="wenjianjiax" unicode="&#59096;" d="M844.928 38.656c-7.936-27.84-23.872-53.12-53.248-53.12H174.08L267.072 376.96c8.064 28.16 23.808 53.184 53.12 53.184h564.608a53.12 53.12 0 0 0 53.12-53.12l-93.056-338.432zM232.96 517.76h598.72v52.288a53.248 53.248 0 0 1-53.184 53.184h-319.36v48.256a53.248 53.248 0 0 1-53.12 53.12h-266.24a53.248 53.248 0 0 1-53.12-53.12v-632.768l92.992 425.792c7.68 27.328 23.936 53.248 53.312 53.248z"  horiz-adv-x="1024" />

    
    <glyph glyph-name="zonghexinxi" unicode="&#58889;" d="M416.914286 771.657143H175.542857c-36.571429 0-65.828571-29.257143-65.828571-65.828572v-226.742857c0-36.571429 29.257143-65.828571 65.828571-65.828571h307.2v292.571428c-7.314286 36.571429-36.571429 65.828571-65.828571 65.828572z m431.542857 0H607.085714c-36.571429 0-65.828571-29.257143-65.828571-65.828572v-292.571428h307.2c36.571429 0 65.828571 29.257143 65.828571 65.828571V705.828571c0 36.571429-29.257143 65.828571-65.828571 65.828572zM109.714286 288.914286v-226.742857c0-36.571429 29.257143-65.828571 65.828571-65.828572h241.371429c36.571429 0 65.828571 29.257143 65.828571 65.828572V347.428571H175.542857c-36.571429 0-65.828571-29.257143-65.828571-58.514285z m738.742857 58.514285H548.571429v-292.571428c0-36.571429 29.257143-65.828571 65.828571-65.828572h241.371429c36.571429 0 65.828571 29.257143 65.828571 65.828572V288.914286c-7.314286 29.257143-36.571429 58.514286-73.142857 58.514285z"  horiz-adv-x="1024" />

    
    <glyph glyph-name="zhengjian1" unicode="&#59030;" d="M341.333333 682.666667v-42.666667h341.333334V682.666667h106.666666A64 64 0 0 0 853.333333 618.666667v-597.333334a64 64 0 0 0-64-64h-554.666666A64 64 0 0 0 170.666667 21.333333v597.333334A64 64 0 0 0 234.666667 682.666667H341.333333z m114.773334-361.6c-6.229333-14.506667-15.274667-18.048-17.962667-19.456C387.2 285.866667 341.333333 263.04 341.333333 198.144 341.333333 133.290667 472.106667 128 511.146667 128c157.952 0 169.813333 54.357333 171.52 71.893333 0 64.896-45.866667 85.930667-96.810667 103.466667-3.84 1.322667-12.629333 4.693333-18.858667 17.749333 25.472 21.205333 38.869333 58.026667 38.869334 103.253334C605.866667 473.386667 564.352 512 511.573333 512s-94.336-38.570667-94.336-87.68c0-45.184 13.397333-82.048 38.869334-103.253333zM322.346667 640C309.290667 640 298.666667 630.442667 298.666667 618.666667s10.624-21.333333 23.722666-21.333334h379.221334c13.098667 0 23.722667 9.557333 23.722666 21.333334s-10.624 21.333333-23.722666 21.333333H322.389333zM512 853.333333a106.666667 106.666667 0 0 0 106.666667-106.666666V640h-213.333334V746.666667A106.666667 106.666667 0 0 0 512 853.333333z m0-128a42.666667 42.666667 0 1 1 0 85.333334 42.666667 42.666667 0 0 1 0-85.333334z"  horiz-adv-x="1024" />

    
    <glyph glyph-name="wenjianjia1" unicode="&#59393;" d="M945.664 683.52c34.304 0 61.952-19.968 70.144-51.2 2.048-6.656 2.56-14.336 2.56-20.992v-560.128c0-41.984-30.208-72.192-72.192-72.192h-866.816c-41.984 0-72.704 30.208-72.704 72.704V683.52h939.008z m0 0M514.56 683.52c0 78.336-62.976 142.336-141.312 142.336h-294.912c-42.496 0-72.704-30.208-72.704-72.704v-69.12"  horiz-adv-x="1024" />

    
    <glyph glyph-name="yewu" unicode="&#59097;" d="M667.109 883.076c-2.583 0-183.594 0.376-310.836 0.641a73.503 73.503 0 0 1-5.85 0.255H182.47c-40.071 0-72.555-32.484-72.555-72.555V37.51a73.087 73.087 0 0 1-0.666-9.715v-71.212c0-40.071 32.484-72.555 72.555-72.555h659.728c40.071 0 72.555 32.484 72.555 72.555v39.413c0.439 4.28 0.667 8.623 0.667 13.02V571.49v62.497L667.109 883.076z m0-61.598L852.84 633.987H729.02c-34.196 0-61.911 27.989-61.911 62.5V821.478zM326.601 384h371.462c17.093 0 30.957-13.99 30.957-31.246 0-17.26-13.863-31.244-30.957-31.244H326.601c-17.1 0-30.957 13.984-30.957 31.244 0 17.257 13.857 31.246 30.957 31.246z m0-187.481h371.462c17.093 0 30.957-13.996 30.957-31.259 0-17.248-13.863-31.241-30.957-31.241H326.601c-17.1 0-30.957 13.992-30.957 31.241 0 17.262 13.857 31.259 30.957 31.259z"  horiz-adv-x="1024" />

    
    <glyph glyph-name="riqi" unicode="&#58952;" d="M327.219 336.092h-82.221c-22.713 0-41.12-17.677-41.12-39.501 0-21.824 18.407-39.501 41.12-39.501h82.221c22.713 0 41.12 17.677 41.12 39.501 0 21.824-18.407 39.501-41.12 39.501M326.54 173.772h-82.221c-22.713 0-41.12-17.677-41.12-39.501 0-21.824 18.407-39.501 41.12-39.501h82.221c22.713 0 41.12 17.677 41.12 39.501 0 21.824-18.408 39.501-41.12 39.501M473.277 257.091h82.221c22.713 0 41.12 17.677 41.12 39.501 0 21.824-18.407 39.501-41.12 39.501h-82.221c-22.713 0-41.12-17.677-41.12-39.501-0.001-21.825 18.407-39.501 41.12-39.501M560.938 173.772h-82.221c-22.713 0-41.12-17.677-41.12-39.501 0-21.824 18.407-39.501 41.12-39.501h82.221c22.713 0 41.12 17.677 41.12 39.501 0.001 21.824-18.407 39.501-41.12 39.501M783.781 336.092H701.56c-22.713 0-41.12-17.677-41.12-39.501 0-21.824 18.407-39.501 41.12-39.501h82.221c22.713 0 41.12 17.677 41.12 39.501 0 21.824-18.407 39.501-41.12 39.501M881.847 693.825h-72.721v-35.254c0-48.882-39.994-88.876-88.876-88.876-48.882 0-88.876 39.994-88.876 88.876v35.254H395.14v-35.254c0-48.882-39.994-88.876-88.876-88.876-48.882 0-88.876 39.994-88.876 88.876v35.254H142.85c-43.628 0-79.001-35.373-79.001-79.001V40.84c0-57.809 46.867-104.657 104.657-104.657h687.686c57.809 0 104.657 46.848 104.657 104.657V614.824c0 43.629-35.373 79.001-79.002 79.001z m14.398-633.787c0-32.726-26.525-59.251-59.251-59.251H187.703c-32.726 0-59.251 26.525-59.251 59.251V385.78c0 32.726 26.525 59.251 59.251 59.251h649.292c32.726 0 59.251-26.525 59.251-59.251v-325.742zM306.26 634.705c-21.725 0-39.501 17.775-39.501 39.501V792.707c0 21.725 17.775 39.501 39.501 39.501 21.725 0 39.501-17.775 39.501-39.501v-118.502c0-21.725-17.776-39.5-39.501-39.5M680.752 674.205V792.707c0 21.725 17.775 39.501 39.501 39.501 21.725 0 39.501-17.775 39.501-39.501v-118.502c0-21.725-17.775-39.501-39.501-39.501-21.726 0.001-39.501 17.776-39.501 39.501z"  horiz-adv-x="1024" />

    
    <glyph glyph-name="tongji1" unicode="&#58978;" d="M929.476923-88.61538499999995h-133.907692c-31.507692 0-55.138462 27.569231-55.138462 59.076923v512c0 31.507692 23.630769 59.076923 55.138462 59.076924h133.907692c31.507692 0 55.138462-27.569231 55.138462-59.076924v-512c0-31.507692-23.630769-59.076923-55.138462-59.076923z m-350.523077 0h-137.846154c-31.507692 0-55.138462 27.569231-55.138461 59.076923v827.076924c0 31.507692 23.630769 59.076923 55.138461 59.076923h137.846154c31.507692 0 55.138462-27.569231 55.138462-59.076923v-823.138462c0-35.446154-23.630769-63.015385-55.138462-63.015385z m-350.523077 0H94.523077c-31.507692 0-55.138462 27.569231-55.138462 59.076923v287.507693c0 31.507692 23.630769 59.076923 55.138462 59.076923h133.907692c31.507692 0 55.138462-27.569231 55.138462-59.076923v-287.507693c0-31.507692-23.630769-59.076923-55.138462-59.076923z"  horiz-adv-x="1024" />

    
    <glyph glyph-name="banshixiangmu" unicode="&#59966;" d="M756.30592 371.4048H455.2704c-25.088 0-45.1584 20.0704-45.1584 45.1584s20.0704 45.1584 45.1584 45.1584h301.02528c25.088 0 45.1584-20.0704 45.1584-45.1584s-20.0704-45.1584-45.1584-45.1584z m-514.2528-132.94592c0-27.5968 20.0704-47.65696 47.6672-47.65696 27.58656 0 47.65696 22.56896 47.65696 47.65696 0 25.088-20.0704 47.6672-47.65696 47.6672-27.5968 0-47.6672-20.0704-47.6672-47.6672z m0 178.10432c0-27.58656 20.0704-47.65696 47.6672-47.65696 27.58656 0 47.65696 22.5792 47.65696 47.65696 0 25.088-20.0704 47.6672-47.65696 47.6672-27.5968 0-47.6672-22.5792-47.6672-47.6672z m514.2528-223.25248H455.2704c-25.088 0-45.1584 20.0704-45.1584 45.1584 0 25.07776 20.0704 45.14816 45.1584 45.14816h301.02528c25.088 0 45.1584-20.0704 45.1584-45.1584s-20.0704-45.1584-45.1584-45.1584z m205.70112-145.50016V612.2496c0 67.72736-62.72 62.70976-62.72 62.70976H545.5872c-20.0704 0-32.6144 10.0352-32.6144 10.0352s-15.0528 25.088-42.63936 65.21856c-25.088 45.1584-57.7024 37.632-57.7024 37.632H139.20256C61.44 787.83488 61.44 715.07968 61.44 715.07968V52.8384c0-82.78016 62.70976-72.74496 62.70976-72.74496h782.66368c65.2288 0 55.1936 67.72736 55.1936 67.72736z"  horiz-adv-x="1024" />

    
    <glyph glyph-name="shenfenzhengzhengjianhao" unicode="&#58888;" d="M512 834C262.45454521 834 62 633.54545479 62 384s200.45454521-450 450-450 450 200.45454521 450 450S761.54545479 834 512 834z m98.18181826-335.45454521h122.72727305c10.22727305 0 16.36363653-14.31818174 16.36363564-24.54545479s-10.22727305-24.54545479-16.36363564-24.54545479h-122.72727305c-10.22727305 0-16.36363653 14.31818174-16.36363652 24.54545479-4.09090869 10.22727305 6.13636347 24.54545479 16.36363652 24.54545479z m-96.13636347-274.09090958h-4.09090958l-280.22727216 4.09090958c-10.22727305 4.09090869-16.36363653 10.22727305-14.31818174 20.45454521 10.22727305 57.27272695 55.22727305 106.36363652 112.5 122.72727305-30.68181826 14.31818174-51.13636347 45-51.13636436 77.72727216 0 51.13636347 40.90909131 92.04545479 92.04545479 92.04545479s92.04545479-40.90909131 92.04545479-92.04545479c0-34.77272695-20.45454521-65.45454521-47.04545479-81.81818173 55.22727305-16.36363653 100.22727305-61.36363652 112.5-122.72727217 4.09090869-10.22727305-2.04545479-20.45454521-12.27272695-20.4545461z m96.13636347 175.90909132h122.72727305c10.22727305 0 16.36363653-14.31818174 16.36363564-24.54545479s-6.13636347-24.54545479-16.36363564-24.54545479h-122.72727305c-10.22727305 0-16.36363653 14.31818174-16.36363652 24.54545479-4.09090869 10.22727305 6.13636347 24.54545479 16.36363652 24.54545479z m182.04545479-145.22727305h-182.04545479c-10.22727305 0-16.36363653 14.31818174-16.36363652 24.54545478s10.22727305 24.54545479 16.36363652 24.54545479h182.04545479c10.22727305 0 16.36363653-14.31818174 16.36363564-24.54545479s-6.13636347-24.54545479-16.36363564-24.54545479z"  horiz-adv-x="1024" />

    
    <glyph glyph-name="geren" unicode="&#58899;" d="M680.79104 250.63936c-44.42112-28.9792-102.17472-48.30208-168.82688-48.30208-66.6368 0-124.3904 19.31776-173.2608 48.30208-111.07328-41.856-186.5984-96.58368-186.5984-196.38784h710.84032c0 99.80416-75.52512 151.31136-182.15424 196.38784zM526.93504 350.75584c93.10208 0 167.57248 78.208 167.57248 171.29472 0 93.10208-74.47552 171.2896-167.57248 171.2896S359.36768 615.15264 359.36768 522.05056c0-96.8192 78.19776-171.29472 167.56736-171.29472zM862.76096 34.87744H151.92064a15.09376 15.09376 0 0 0-15.09376 15.09888c0 85.47328 28.0576 153.97376 85.78048 209.408a15.104 15.104 0 0 0 20.9152-21.79072c-48.77312-46.82752-73.1904-101.94944-76.1856-172.52864h680.00256c-5.08928 116.04992-69.45792 180.09088-165.05344 237.38368-49.55136-41.3952-108.27264-63.21664-170.50112-63.21664-61.53216 0-120.34048 21.4528-174.94016 63.7696-21.64736-11.64288-40.46336-23.30112-57.30304-35.5072a15.104 15.104 0 0 0-17.7152 24.44288c20.2496 14.67904 43.0592 28.55936 69.72416 42.4192a15.08352 15.08352 0 0 0 16.52736-1.69984c51.2768-41.9584 106.35264-63.22688 163.70688-63.22688 73.54368 0 126.90944 34.12992 158.72512 62.76096a15.104 15.104 0 0 0 17.71008 1.81248c98.48832-57.4464 189.63456-131.61472 189.63456-284.04224a15.09376 15.09376 0 0 0-15.09376-15.08352zM346.95168 648.65792a15.104 15.104 0 0 0-12.19584 23.9872 221.76768 221.76768 0 0 0 34.7904 37.71904 15.09376 15.09376 0 1 0 19.65568-22.92736 190.5408 190.5408 0 0 1-30.0288-32.54784 15.06816 15.06816 0 0 0-12.22144-6.23104zM507.34592 322.76992c-118.56384 0-215.02464 98.45248-215.02464 219.45856 0 25.45152 4.33152 50.47808 12.85632 74.40384a15.08864 15.08864 0 0 0 19.29216 9.14944 15.104 15.104 0 0 0 9.14432-19.30752 190.75072 190.75072 0 0 1-11.10016-64.25088c0-104.36096 82.91328-189.27104 184.832-189.27104S692.1728 437.8624 692.1728 542.22336c0 104.3712-82.90816 189.2608-184.82688 189.2608a178.51904 178.51904 0 0 1-76.55424-17.07008 15.08864 15.08864 0 1 0-12.8512 27.29984 208.40448 208.40448 0 0 0 89.41056 19.968c118.55872 0 215.01952-98.45248 215.01952-219.45856s-96.46592-219.45344-215.02464-219.45344z"  horiz-adv-x="1024" />

    
    <glyph glyph-name="chakan" unicode="&#58898;" d="M926.089646 896H106.839646c-56.25 0-102.375-46.125-102.375-102.375v-819.25c0-56.25 46.125-102.375 102.375-102.375h547.125c-82.75 55-137.5 149.125-137.5 256 0 169.75 137.5 307.25 307.25 307.25 78.75 0 150.375-29.875 204.75-78.75V793.625c0 56.25-46.125 102.375-102.375 102.375zM414.089646 179.25H209.214646c-28.25 0-51.25 23-51.25 51.25s23 51.25 51.25 51.25h204.75c28.25 0 51.25-23 51.25-51.25s-23-51.25-51.125-51.25z m102.375 204.75H209.214646c-28.25 0-51.25 23-51.25 51.25s23 51.25 51.25 51.25h307.25c28.25 0 51.25-23 51.25-51.25s-23-51.25-51.25-51.25z m307.25 204.75H209.214646c-28.25 0-51.25 23-51.25 51.25s23 51.25 51.25 51.25h614.375c28.25 0 51.25-23 51.25-51.25s-23-51.25-51.125-51.25z m0 0M978.089646-5.25c31 35.875 50.375 82.125 50.375 133.25 0 113.125-91.75 204.75-204.75 204.75-113.125 0-204.75-91.75-204.75-204.75 0-113.125 91.75-204.75 204.75-204.75 24.25 0 47 4.875 68.625 12.625l48.75-48.75c20-20 52.375-20 72.375 0s20 52.375 0 72.375L978.089646-5.25z m-154.375 1.125c-73.75 0-133.625 59.75-133.625 133.625 0 73.75 59.75 133.625 133.625 133.625s133.625-59.75 133.625-133.625c-0.125-73.75-59.875-133.625-133.625-133.625z"  horiz-adv-x="1059" />

    
    <glyph glyph-name="xiangqing" unicode="&#59072;" d="M548.95616 510.37184h-81.664v81.65376h81.664v-81.65376z m0-326.63552h-81.664V428.70784h81.664v-244.97152zM508.11904 796.16C283.57632 796.16 99.84 612.42368 99.84 387.88096c0-224.5632 183.73632-408.27904 408.27904-408.27904 224.5632 0 408.27904 183.71584 408.27904 408.27904 0 224.54272-183.71584 408.27904-408.27904 408.27904z m0 0"  horiz-adv-x="1024" />

    
    <glyph glyph-name="gangwei" unicode="&#59029;" d="M699.026286 810.788571S734.183619 847.238095 663.917714 847.238095H282.697143C212.431238 847.238095 241.590857 810.22781 241.590857 810.22781l117.369905-194.876953S206.482286 104.838095 206.482286 74.215619 443.63581-79.238095 473.33181-79.238095s266.849524 126.122667 266.849523 153.453714-152.478476 541.135238-152.478476 541.135238z m111.006476-445.561904l-177.980952 250.12419 122.88-357.863619 53.199238 63.390476a37.985524 37.985524 0 0 1 1.901714 44.348953z"  horiz-adv-x="1024" />

    
    <glyph glyph-name="rizhi" unicode="&#58912;" d="M804.4696475 864H284.65788219C213.84376437 864 160.64847031 810.86117625 160.64847031 739.99058812v-17.73176437C101.58023563 710.4 60.24376438 657.3176475 60.24376438 592.3199999999999c0-41.33647031 17.73176438-76.8 47.26588312-100.40470594A126.15529406 126.15529406 0 0 1 60.24376438 391.51058812c0-41.33647031 17.73176438-76.8 47.26588312-100.40470593A126.15529406 126.15529406 0 0 1 60.24376438 190.70117625c0-64.9976475 41.33647031-112.26352969 100.40470593-129.93882375v-17.73176438c0-64.94117625 53.13882375-124.06588219 124.00941188-124.06588218h519.81176531c64.94117625 0 124.00941187 53.19529406 124.00941094 124.06588218V739.99058812C922.5496475 810.86117625 869.41082375 864 804.4696475 864z m-643.76470594-738.29647031c-23.7176475 11.85882375-41.39294156 35.46352969-41.39294156 64.94117625 0 29.53411781 17.73176438 53.19529406 41.33647031 64.99764656v-129.93882281z m0 200.80941187c-23.7176475 11.85882375-41.39294156 35.46352969-41.39294156 64.94117625 0 29.59058813 17.73176438 53.19529406 41.33647031 64.99764656v-129.8823525z m0 206.6823525c-23.7176475 5.92941187-41.39294156 35.46352969-41.39294156 59.12470594 0 29.53411781 17.73176438 53.13882375 41.33647031 64.94117625v-124.00941188z m608.30117625-401.5623525h-425.22352969v59.06823469h425.22352969v-59.06823469z m0 212.61176438h-425.22352969V403.31294156h425.22352969v-59.06823562z m0 248.07529406h-425.22352969V651.3882356199999h425.22352969v-59.06823562z"  horiz-adv-x="1024" />

    
    <glyph glyph-name="wenjianjia" unicode="&#58881;" d="M974.99592797 121.22599136999997H49.00407203V675.63358183h857.08789887c38.11120672 0 69.04204115-30.93083443 69.04204115-69.04204115v-485.36554931h-0.13808408zM627.71446098 675.63358183c0 63.9329301-51.78153086 115.71446098-115.71446098 115.71446098H49.00407203v-115.71446098h578.71038895M164.718533 275.74207947V622.88546238h694.562934v-347.14338291h-694.562934zM974.99592797 47.90334367000003V497.50511565c0 31.89742302-25.95980747 57.85723049-57.85723049 57.85723048H106.86130252c-31.89742302 0-57.85723049-25.95980747-57.85723049-57.85723048v-449.4636879c0-39.35396347 31.89742302-71.38947055 71.38947055-71.38947056h783.35099891c39.35396347-0.13808409 71.25138647 31.89742302 71.25138648 71.25138648z"  horiz-adv-x="1024" />

    
    <glyph glyph-name="shijian" unicode="&#60059;" d="M873.518545 793.6c56.32 0 102.4-46.08 102.4-102.4v-716.8c0-56.32-46.08-102.4-102.4-102.4h-716.8c-56.32 0-102.4 46.08-102.4 102.4V691.2c0 56.32 46.08 102.4 102.4 102.4h214.016C392.238545 852.992 448.558545 896 515.118545 896s122.88-43.008 144.384-102.4h214.016z m-614.4-307.2h512V588.8h-512v-102.4z m0-204.8h512V384h-512v-102.4z m0-204.8h358.4v102.4h-358.4v-102.4z m256 716.8c-28.16 0-51.2-23.04-51.2-51.2 0-28.16 23.04-51.2 51.2-51.2 28.16 0 51.2 23.04 51.2 51.2 0 28.16-23.04 51.2-51.2 51.2z"  horiz-adv-x="1024" />

    
    <glyph glyph-name="paiming1" unicode="&#58887;" d="M43.554133 287.0272h261.973334a30.071467 30.071467 0 0 0 29.934933-30.242133v-354.542934a30.071467 30.071467 0 0 0-29.934933-30.242133H43.554133a30.1056 30.1056 0 0 0-29.969066 30.242133V256.785067a30.1056 30.1056 0 0 0 29.969066 30.242133z m380.2112 280.132267h261.7344a30.208 30.208 0 0 0 30.071467-30.378667V-97.621333a30.208 30.208 0 0 0-30.071467-30.378667h-261.7344a30.208 30.208 0 0 0-30.071466 30.378667V536.814933a30.208 30.208 0 0 0 30.071466 30.344534z m376.149334-152.1664h262.826666a29.696 29.696 0 0 0 29.559467-29.832534v-483.328a29.696 29.696 0 0 0-29.559467-29.832533h-262.826666a29.696 29.696 0 0 0-29.559467 29.832533v483.328a29.696 29.696 0 0 0 29.559467 29.832534zM0 525.653333l73.216-72.0896-17.271467-101.819733 90.5216 48.059733 90.5216-48.059733-17.271466 101.819733 73.216 72.0896-101.205334 14.848L146.432 633.173333l-45.2608-92.637866L0 525.653333m464.213333 88.951467l90.5216 48.059733 90.5216-48.059733-17.2032 101.819733 73.216 72.0896-82.2272 12.0832a36.420267 36.420267 0 0 0-27.306666 20.138667L554.632533 896l-45.2608-92.637867-101.205333-14.848 73.250133-72.0896z m378.88-161.245867l87.4496 46.421334a1.3312 1.3312 0 0 0 1.262934 0l87.4496-46.421334a1.365333 1.365333 0 0 1 1.979733 1.467734l-16.6912 98.338133a1.3312 1.3312 0 0 0 0.375467 1.2288l70.7584 69.632A1.399467 1.399467 0 0 1 1075.2 626.346667l-97.757867 14.336a1.365333 1.365333 0 0 0-1.024 0.750933l-43.7248 89.463467a1.3312 1.3312 0 0 1-2.423466 0l-43.7248-89.463467a1.365333 1.365333 0 0 0-1.024-0.750933l-97.757867-14.336a1.399467 1.399467 0 0 1-0.785067-2.3552l70.7584-69.632a1.3312 1.3312 0 0 0 0.375467-1.2288l-16.6912-98.338134a1.365333 1.365333 0 0 1 1.672533-1.4336z"  horiz-adv-x="1092" />

    
    <glyph glyph-name="gongxiang1" unicode="&#58954;" d="M771.2 176c-41.6 0-80-16-108.8-44.8l-281.6 192c12.8 22.4 19.2 44.8 19.2 70.4 0 19.2-3.2 38.4-9.6 57.6l272 185.6c25.6-28.8 64-48 108.8-48 86.4 0 156.8 67.2 156.8 153.6C928 825.6 860.8 889.6 774.4 889.6S620.8 822.4 620.8 739.2c0-9.6 0-16 3.2-25.6l-294.4-192c-25.6 16-51.2 22.4-83.2 22.4C163.2 544 96 476.8 96 396.8c0-83.2 67.2-150.4 153.6-150.4 22.4 0 44.8 6.4 64 16L624 57.6c-3.2-9.6-3.2-19.2-3.2-32 0-83.2 67.2-150.4 153.6-150.4S928-57.6 928 25.6C924.8 108.8 857.6 176 771.2 176z"  horiz-adv-x="1024" />

    
    <glyph glyph-name="shuju" unicode="&#59057;" d="M100.33682963 639.8331259199999a411.66317037 232.04598518 0 1 1 823.32634074 0 411.66317037 232.04598518 0 1 1-823.32634074 0ZM885.06974815 204.38281482000002c-65.536-79.12865185-208.01611852-133.74198518-373.06974815-133.74198519S204.70897778 125.25416297000004 138.93025185 204.38281482000002c-5.33997037 6.5536-15.53445925 5.5826963-19.6608-1.69908149-12.37902222-22.08805925-18.93262222-45.38974815-18.93262222-69.66234074 0-128.15928889 184.22897778-232.04598518 411.66317037-232.04598518s411.66317037 103.8866963 411.66317037 232.04598518c0 24.27259259-6.5536 47.81700741-18.93262222 69.66234074-4.12634075 7.28177778-14.32082963 8.25268148-19.6608 1.69908149zM885.06974815 457.54595555c-65.536-79.12865185-208.01611852-133.74198518-373.06974815-133.74198518s-307.29102222 54.85605925-373.06974815 133.74198518c-5.33997037 6.5536-15.53445925 5.5826963-19.6608-1.69908147-12.37902222-22.08805925-18.93262222-45.38974815-18.93262222-69.66234075 0-128.15928889 184.22897778-232.04598518 411.66317037-232.04598518s411.66317037 103.8866963 411.66317037 232.04598518c0 24.27259259-6.5536 47.81700741-18.93262222 69.66234075-4.12634075 7.5245037-14.32082963 8.25268148-19.6608 1.69908147z"  horiz-adv-x="1024" />

    
    <glyph glyph-name="xiala" unicode="&#58884;" d="M919.8 514.9L555.2 116.2a57.377 57.377 0 0 0-43.1-19.5c-16.5 0-32.2 7.1-43.1 19.5L104.4 514.9c-17.8 18.8-23.3 46.2-14.1 70.4s31.4 41.1 57.2 43.4h728.9c25.9-2.2 48.2-19 57.4-43.3 9.3-24.3 3.8-51.6-14-70.5z"  horiz-adv-x="1024" />

    
    <glyph glyph-name="ziyuan" unicode="&#58917;" d="M512.076808 412.265227a668.380438 668.380438 0 0 1-337.953796 168.976897A101.386139 101.386139 0 0 1 56.146415 481.238524v-315.679568c0-85.10291 36.406841-129.80498 86.639064-136.256826a663.0039 663.0039 0 0 0 335.80318-145.320132 53.30453 53.30453 0 0 1 64.364836-1.997 667.151515 667.151515 0 0 0 337.953796 146.856286 106.30183 106.30183 0 0 1 86.639064 102.307831V481.238524a101.386139 101.386139 0 0 1-117.515752 100.310831 668.380438 668.380438 0 0 1-337.953795-169.284128z m0 179.883588a151.925593 151.925593 0 1 1-151.925593 151.925592 151.771977 151.771977 0 0 1 151.925593-151.925592z"  horiz-adv-x="1024" />

    
    <glyph glyph-name="biaodan" unicode="&#58913;" d="M62 594h300v-180h-300v180z m360 0h300v-180h-300v180z m360 0h300v-180h-300v180zM182 834h780a120 120 0 0 0 120-120v-60H62v60a120 120 0 0 0 120 120zM62 354h300v-180h-300v180z m360 0h300v-180h-300v180z m360 0h300v-180h-300v180zM62 114h300v-180h-180a120 120 0 0 0-120 120v60z m360 0h300v-180h-300v180z m360 0h300v-60a120 120 0 0 0-120-120h-180v180z"  horiz-adv-x="1152" />

    
    <glyph glyph-name="menu-two" unicode="&#58885;" d="M90.258176 47.477845340000044L933.08326402 47.477845340000044c46.36262401 0 84.29568-37.933056 84.29567998-84.29568s-37.933056-84.29568-84.29567999-84.29568001l-842.69337602 0c-46.36262401 0-84.29568 37.933056-84.29568 84.29568001-0.13171201 46.36262402 37.801344 84.29568 84.16396801 84.29568zM90.258176 460.13154133L928.078208 460.13154133c46.36262401 0 84.29568-37.933056 84.29568-84.29567999s-37.933056-84.29568-84.29568-84.29568l-837.820032 0c-46.36262401 0-84.29568 37.933056-84.29568 84.29568s37.933056 84.29568 84.29568 84.29567999zM90.258176 880.29282135L933.08326401 880.29282136c46.36262401 0 84.29568-37.933056 84.29567999-84.29568001s-37.933056-84.29568-84.29567999-84.29568003l-842.69337601 0c-46.36262401 0-84.29568 37.933056-84.29568001 84.29568003-0.13171201 46.36262402 37.801344 84.29568 84.16396801 84.29568z"  horiz-adv-x="1024" />

    
    <glyph glyph-name="shouqi" unicode="&#58951;" d="M127.3 180.4l384.1 407.2 384.1-407.2H127.3z m0 0M896.6 117.4c-0.4 0.1-0.9 0.1-1.3 0h-768c-25.1 0-47.9 14.9-57.8 38-10 23.1-5.3 49.9 12 68.2l384.1 407.2c23.8 25.2 67.8 25.2 91.6 0l377.3-400c15.3-11.5 25.2-29.8 25.2-50.4-0.1-34.8-28.3-63-63.1-63zM273.2 243.3h476.2L511.3 495.8 273.2 243.3z m0 0"  horiz-adv-x="1024" />

    
    <glyph glyph-name="tubiaokuwenjian-gengxin-" unicode="&#58990;" d="M887.466667 733.866667H136.533333c-38.4 0-72.533333-34.133333-72.533333-72.533334v-558.933333c0-38.4 34.133333-72.533333 72.533333-72.533333h750.933334c38.4 0 72.533333 34.133333 72.533333 72.533333V665.6c0 38.4-34.133333 68.266667-72.533333 68.266667zM307.2 584.5333330000001c21.333333 21.333333 51.2 29.866667 76.8 29.866667s55.466667-12.8 76.8-34.133333 34.133333-46.933333 34.133333-76.8-12.8-55.466667-34.133333-76.8-46.933333-29.866667-76.8-29.866667-55.466667 12.8-76.8 29.866667-29.866667 51.2-29.866667 81.066666 8.533333 55.466667 29.866667 76.8z m260.266667-392.533333c0-17.066667-17.066667-34.133333-34.133334-34.133333H238.933333c-21.333333 0-34.133333 17.066667-34.133333 34.133333v55.466667c0 64 55.466667 119.466667 119.466667 119.466666h123.733333c64 0 119.466667-55.466667 119.466667-119.466666v-55.466667z m256 46.933333c0-21.333333-17.066667-34.133333-34.133334-34.133333h-115.2c-21.333333 0-34.133333 17.066667-34.133333 34.133333 0 21.333333 17.066667 34.133333 34.133333 34.133334h115.2c17.066667 0 34.133333-17.066667 34.133334-34.133334z m0 145.066667c0-21.333333-17.066667-34.133333-34.133334-34.133333h-153.6c-21.333333 0-34.133333 17.066667-34.133333 34.133333 0 21.333333 17.066667 34.133333 34.133333 34.133333h153.6c17.066667 0 34.133333-12.8 34.133334-34.133333z m0 145.066667c0-21.333333-17.066667-34.133333-34.133334-34.133334h-183.466666c-21.333333 0-34.133333 17.066667-34.133334 34.133334 0 21.333333 17.066667 34.133333 34.133334 34.133333h183.466666c17.066667 4.266667 34.133333-12.8 34.133334-34.133333z"  horiz-adv-x="1024" />

    
    <glyph glyph-name="michi" unicode="&#59098;" d="M632.527 397.5q39.533-14.464 72.317-39.534t56.889-58.335 37.122-73.28 13.017-83.406q0-56.889-21.213-106.064t-58.335-85.815-86.298-57.853-105.1-21.213-105.1 21.213-86.297 57.853-58.335 85.815-21.213 106.064q0 44.354 13.5 84.37t37.604 73.28 57.37 58.335 72.8 39.533V803.435q0 17.356 6.267 33.748T475.36 866.59t27.48 21.213T537.07 896t35.676-8.196T603.6 866.591t21.213-29.408 7.713-33.748v-405.936z m-89.672-348.084q38.569 0 65.567 26.998t26.998 66.531q0 38.57-26.998 65.567t-65.567 26.998q-39.533 0-66.531-26.998t-26.998-65.567q0-39.533 26.998-66.53t66.531-26.999z m208.271 725.092q61.71 0 61.71-57.853v-62.674q0-33.747-16.874-46.764T758.84 594.2h-66.531V774.508h58.817z"  horiz-adv-x="1024" />

    
    <glyph glyph-name="tubiao" unicode="&#58930;" d="M840.9 350.8H502.8c-11.8 0-21.4 9.6-21.4 21.4V732.5c-215.6 0-389.5-178.9-381.3-396.5 7.4-196.5 170-359 366.4-366.5 210-7.9 384.1 153.9 395.9 359 0.7 12.2-9.4 22.3-21.5 22.3zM566.3 795.5c-11.5 0.6-21.2-9-21.2-20.6v-340.1c0-11.3 9.2-20.4 20.4-20.4h339.9c11.6 0 21.2 9.6 20.6 21.2-10.5 194-165.8 349.3-359.7 359.9z"  horiz-adv-x="1024" />

    
    <glyph glyph-name="wenjian" unicode="&#59217;" d="M648.533333 896H375.466667c-40.96 0-68.266667-27.306667-68.266667-68.266667v-68.266666c0-40.96 27.306667-68.266667 68.266667-68.266667h273.066666c40.96 0 68.266667 27.306667 68.266667 68.266667V827.733333c0 40.96-27.306667 68.266667-68.266667 68.266667zM921.6 827.733333h-204.8v-68.266666c0-40.96-27.306667-68.266667-68.266667-68.266667H375.466667c-40.96 0-68.266667 27.306667-68.266667 68.266667V827.733333H102.4c-40.96 0-68.266667-27.306667-68.266667-68.266666v-819.2c0-40.96 27.306667-68.266667 68.266667-68.266667h819.2c40.96 0 68.266667 27.306667 68.266667 68.266667V759.466667c0 40.96-27.306667 68.266667-68.266667 68.266666z m-238.933333-614.4h-341.333334c-20.48 0-34.133333 13.653333-34.133333 34.133334s13.653333 34.133333 34.133333 34.133333h341.333334c20.48 0 34.133333-13.653333 34.133333-34.133333s-13.653333-34.133333-34.133333-34.133334z m0 204.8h-341.333334c-20.48 0-34.133333 13.653333-34.133333 34.133334s13.653333 34.133333 34.133333 34.133333h341.333334c20.48 0 34.133333-13.653333 34.133333-34.133333s-13.653333-34.133333-34.133333-34.133334z"  horiz-adv-x="1024" />

    
    <glyph glyph-name="zhengjian" unicode="&#59005;" d="M310.57 598.31m2 0l484 0q2 0 2-2l0-604q0-2-2-2l-484 0q-2 0-2 2l0 604q0 2 2 2ZM775.47 684.64h-196v68.75A44.51 44.51 0 0 1 535 797.85h-43.95a44.51 44.51 0 0 1-44.46-44.46v-68.75h-196a41.49 41.49 0 0 1-41.46-41.45V166h0.14c0-0.24-0.14-0.45-0.14-0.7a14.82 14.82 0 0 1 29.64 0c0 0.25-0.13 0.46-0.15 0.7h0.15V643.19A11.83 11.83 0 0 0 250.55 655h524.92a11.83 11.83 0 0 0 11.81-11.81v-634.77a11.82 11.82 0 0 0-11.81-11.81H250.55a11.83 11.83 0 0 0-11.82 11.81v39.19h-0.1a14.73 14.73 0 0 1-29.45 0h-0.09v-39.19A41.49 41.49 0 0 1 250.55-33h524.92a41.49 41.49 0 0 1 41.45 41.45V643.19a41.49 41.49 0 0 1-41.45 41.45z m-225.68 0h-73.56v68.75a14.84 14.84 0 0 0 14.82 14.82H535a14.84 14.84 0 0 0 14.82-14.82zM361.99 489.02m14.36 0l273.31 0q14.36 0 14.36-14.36l0-0.01q0-14.36-14.36-14.36l-273.31 0q-14.36 0-14.36 14.36l0 0.01q0 14.36 14.36 14.36ZM361.99 357.95m14.36 0l273.31 0q14.36 0 14.36-14.36l0-0.01q0-14.36-14.36-14.36l-273.31 0q-14.36 0-14.36 14.36l0 0.01q0 14.36 14.36 14.36ZM361.99 226.88m14.36 0l273.31 0q14.36 0 14.36-14.36l0-0.01q0-14.36-14.36-14.36l-273.31 0q-14.36 0-14.36 14.36l0 0.01q0 14.36 14.36 14.36Z"  horiz-adv-x="1024" />

    
    <glyph glyph-name="qita1" unicode="&#59103;" d="M306.43487 866.207853H153.218116a152.569839 152.569839 0 0 1-153.216754-153.216753v-153.216754a152.569839 152.569839 0 0 1 153.216754-153.216754H306.43487a152.569839 152.569839 0 0 1 153.216753 153.216754v153.216754A154.78297 154.78297 0 0 1 306.43487 866.207853z m674.153716-122.573403l-108.954136 108.954136a154.204151 154.204151 0 0 1-214.503455 0l-108.954136-108.954136a154.204151 154.204151 0 0 1 0-214.503455l108.954136-108.954136a154.204151 154.204151 0 0 1 214.503455 0l108.954136 108.954136a154.204151 154.204151 0 0 1 0 214.503455zM306.43487 331.651623H153.218116a152.569839 152.569839 0 0 1-153.216754-153.216753v-153.216754a152.569839 152.569839 0 0 1 153.216754-153.216754H306.43487a152.569839 152.569839 0 0 1 153.216753 153.216754v153.216754a152.569839 152.569839 0 0 1-153.216753 153.216753z m534.55623 0h-153.216754a152.569839 152.569839 0 0 1-153.216754-153.216753v-153.216754a152.569839 152.569839 0 0 1 153.216754-153.216754h153.216754a152.569839 152.569839 0 0 1 153.216753 153.216754v153.216754a157.064197 157.064197 0 0 1-153.216753 153.216753z m0 0"  horiz-adv-x="1024" />

    
    <glyph glyph-name="zhaopingangwei" unicode="&#58910;" d="M392.768977 670.734705L276.17985 828.72513c-14.33368 19.196893 2.175648 44.792749 29.243266 44.792749h412.925158c27.067618 0 43.512956-25.147929 29.243266-44.792749L631.002413 670.734705a36.282127 36.282127 0 0 0-29.243266-13.693783H422.012244a36.282127 36.282127 0 0 0-29.243267 13.693783zM444.02468 600.410089h136.169958a105.902857 105.902857 0 0 0 92.593011-48.888087l189.793277-330.954426a76.339643 76.339643 0 0 0-18.556996-97.456225l-241.880845-211.165817a146.216331 146.216331 0 0 0-186.337837 0.767876l-236.761674 210.333952a76.211663 76.211663 0 0 0-17.85311 96.880317L351.303689 551.458013a105.902857 105.902857 0 0 0 92.720991 48.952076zM468.276754 586.140399l-229.530844-516.588378-64.949487 86.897934 46.58446 143.912704 142.696901 262.357531zM600.415364 633.364754H423.420016a63.349745 63.349745 0 0 0-51.575652 24.572022l-114.797417 158.054415a46.136532 46.136532 0 0 0-1.66373 53.047413 63.029797 63.029797 0 0 0 53.239381 27.003629h406.590184a63.093787 63.093787 0 0 0 53.303371-27.003629 46.136532 46.136532 0 0 0-1.66373-53.047413L651.991016 657.808797a63.221766 63.221766 0 0 0-51.575652-24.444043z m-183.010375 49.272024a7.422798 7.422798 0 0 1 5.951037-2.879534h176.995349a7.422798 7.422798 0 0 1 5.951037 2.815545L721.099829 840.627203a4.927202 4.927202 0 0 1 0 5.887048 6.846892 6.846892 0 0 1-6.398964 3.071502H308.110681a6.846892 6.846892 0 0 1-6.398964-3.071502 4.927202 4.927202 0 0 1 0-5.887048zM509.294115-127.984003a166.884985 166.884985 0 0 0-111.022029 40.249485l-234.841985 210.077994a98.096121 98.096121 0 0 0-22.524353 123.691977l188.833432 330.698468a132.010631 132.010631 0 0 0 114.733428 61.302077h135.210113a131.882651 131.882651 0 0 0 114.733427-61.302077l188.513485-330.058572a97.968141 97.968141 0 0 0-23.35622-124.459853l-240.217115-210.525921a167.268923 167.268923 0 0 0-110.062183-39.673578zM444.472608 591.387549a79.347156 79.347156 0 0 1-69.172803-36.282127L186.722331 224.726902a54.519175 54.519175 0 0 1 12.797928-69.55674l234.841985-209.822035a116.973065 116.973065 0 0 1 149.223845-0.575907l240.217115 210.525921a54.519175 54.519175 0 0 1 13.501814 69.940678L648.791534 555.361381a79.347156 79.347156 0 0 1-69.172803 36.282127zM509.294115-127.920013a166.884985 166.884985 0 0 0-111.022029 40.249485l-42.169173 37.625909-0.575907 0.511917-20.988603 18.748965a21.564509 21.564509 0 0 0 0 32.762697 27.579536 27.579536 0 0 0 36.282127 0l63.989642-56.886792a117.037055 117.037055 0 0 1 149.159855-0.511917l240.217114 210.525921a54.519175 54.519175 0 0 1 13.501815 69.940679L649.175471 555.169412a79.347156 79.347156 0 0 1-69.172802 36.282127H444.792556a79.347156 79.347156 0 0 1-69.172803-36.282127L186.722331 224.726902a54.519175 54.519175 0 0 1 12.797928-69.55674l78.067363-69.68472a21.628499 21.628499 0 0 0 0-32.762696 27.643525 27.643525 0 0 0-36.282127 0L163.430101 122.343476a98.032131 98.032131 0 0 0-22.524353 123.691977l188.833432 330.698468a132.010631 132.010631 0 0 0 114.733428 61.302077h135.210113a131.882651 131.882651 0 0 0 114.733427-61.302077l188.513485-330.058572a97.968141 97.968141 0 0 0-23.35622-124.459853l-240.217115-210.525921a167.268923 167.268923 0 0 0-110.062183-39.609588z"  horiz-adv-x="1024" />

    
    <glyph glyph-name="gengduo" unicode="&#58882;" d="M88.275 825.38H370.76q70.62 0 70.62-70.621v-282.483q0-70.62-70.62-70.62H88.276q-70.62 0-70.62 70.62V754.759q0 70.62 70.62 70.62zM88.275 295.9H370.76q70.62 0 70.62-70.62v-282.483q0-70.62-70.62-70.62H88.276q-70.62 0-70.62 70.62V225.28q0 70.62 70.62 70.62zM617.931 295.9h282.483q70.62 0 70.62-70.62v-282.483q0-70.62-70.62-70.62H617.93q-70.62 0-70.62 70.62V225.28q0 70.62 70.62 70.62zM801.27 846.07l174.777-174.777q49.937-49.937 0-99.873L801.27 396.642q-49.936-49.936-99.873 0L526.62 571.42q-49.937 49.936 0 99.873L701.397 846.07q49.937 49.936 99.873 0z"  horiz-adv-x="1024" />

    
    <glyph glyph-name="moban" unicode="&#58919;" d="M73.15456 896h877.71136C991.25248 896 1024 863.25248 1024 822.84544v-219.42272H0V822.84544C0 863.25248 32.74752 896 73.15456 896z m0-1024h219.42272V530.28864H0v-585.15456C0-95.25248 32.74752-128 73.15456-128z m292.5568 0h585.15456c40.38656 0 73.13408 32.74752 73.13408 73.13408V530.28864H365.71136V-128z"  horiz-adv-x="1024" />

    
    <glyph glyph-name="tongji" unicode="&#58891;" d="M532.37081621 110.45643632999997a69.60957012 69.60957012 0 0 0-8.279354-10.07921338L379.29275615-45.81637411999998a67.9447002 67.9447002 0 0 0-96.56246777 0 69.24959825 69.24959825 0 0 0 0 97.46239746L341.04574004 110.45643632999997H254.47249268a89.99298018 89.99298018 0 0 0-89.99298106 89.99298106V696.1757499H130.91212989a68.88962636 68.88962636 0 0 0 0 137.8242501H983.14565557a68.88962636 68.88962636 0 1 0 0-137.8242501h-33.52238526V200.44941738a89.99298018 89.99298018 0 0 0-89.99298018-89.99298105h-86.52825087l58.27045517-58.81041299c26.72791523-26.99789414 26.72791523-70.4645042 0-97.46239746a67.9447002 67.9447002 0 0 0-96.56246865 0l-144.79870518 146.19359707c-3.14975391 3.14975391-5.89454033 6.52449112-8.279354 10.07921338h-49.31615391zM602.02538369 601.5031344700001a44.99649052 44.99649052 0 1 1-89.99298106 1e-8v-314.97543194a44.99649052 44.99649052 0 1 1 89.99298106-1e-8v314.97543195zM428.51891709 447.84012011a44.99649052 44.99649052 0 1 1-89.99298105 0v-179.98596034a44.99649052 44.99649052 0 1 1 89.99298105 0v179.98596034z m353.49242695 0a44.99649052 44.99649052 0 1 1-89.99298018 0v-179.98596034a44.99649052 44.99649052 0 1 1 89.99298018 0v179.98596034z"  horiz-adv-x="1126" />

    
    <glyph glyph-name="xitong" unicode="&#58883;" d="M1020.16 455.552c-3.968 22.4-25.408 45.312-47.808 50.24l-16.704 3.84a166.4 166.4 0 0 0-96 76.352 167.68 167.68 0 0 0-17.664 122.624l5.248 15.744c6.72 21.824-1.984 51.968-19.456 66.88 0 0-15.68 13.312-59.712 38.912-44.224 25.472-63.168 32.576-63.168 32.576-21.504 7.936-51.584 0.32-67.328-16.448l-11.584-12.48a163.584 163.584 0 0 0-113.728-45.376 164.48 164.48 0 0 0-114.304 45.76l-11.136 12.16c-15.488 16.768-45.76 24.192-67.328 16.384 0 0-19.2-7.104-63.36-32.576-44.224-25.792-59.776-39.104-59.776-39.104-17.408-14.784-26.112-44.608-19.392-66.688l4.8-15.936a168.256 168.256 0 0 0-17.664-122.432A164.736 164.736 0 0 0 67.52 509.44l-16.064-3.648c-22.016-5.12-43.712-27.712-47.808-50.24 0 0-3.648-20.224-3.648-71.552s3.648-71.488 3.648-71.488c3.968-22.656 25.408-45.312 47.808-50.24l15.68-3.648c40.96-12.096 75.648-39.616 96.704-76.8 22.016-38.592 27.328-82.496 17.664-122.624l-4.544-15.552c-6.72-21.824 1.984-51.968 19.456-66.88 0 0 15.68-13.312 59.712-38.912 44.224-25.6 63.232-32.576 63.232-32.576 21.44-7.936 51.584-0.32 67.328 16.448l11.008 11.904c64 61.248 164.864 61.184 228.8-0.128l11.008-11.968c15.488-16.704 45.76-24.192 67.328-16.384 0 0 19.2 7.104 63.424 32.576 44.16 25.6 59.648 38.912 59.648 38.912 17.472 14.72 26.176 44.8 19.456 66.88l-4.8 16.128a166.72 166.72 0 0 0 17.664 121.984 166.272 166.272 0 0 0 96.704 76.8l15.744 3.648c22.016 5.12 43.712 27.712 47.808 50.24 0 0 3.648 20.224 3.648 71.488-0.384 51.392-3.968 71.744-3.968 71.744zM512.192 178.496c-112.64 0-204.16 91.904-204.16 205.568a204.48 204.48 0 0 0 204.16 205.184c112.576 0 204.096-91.904 204.096-205.504-0.192-113.344-91.52-205.184-204.096-205.248z m0 0"  horiz-adv-x="1024" />

    
    <glyph glyph-name="pre_icon_daibanshixiang" unicode="&#58943;" d="M225.28 752.64h655.36v-819.2H225.28zM921.6-128H102.4a40.96 40.96 0 0 0-40.96 40.96V855.04a40.96 40.96 0 0 0 40.96 40.96h819.2a40.96 40.96 0 0 0 40.96-40.96v-942.08a40.96 40.96 0 0 0-40.96-40.96zM901.12 793.6a40.96 40.96 0 0 1-40.96 40.96H163.84a40.96 40.96 0 0 1-40.96-40.96v-819.2a40.96 40.96 0 0 1 40.96-40.96h696.32a40.96 40.96 0 0 1 40.96 40.96V793.6zM573.44 158.72h245.76v-61.44H573.44v61.44z m0 143.36h245.76v-61.44H573.44v61.44z m0 266.24h245.76v-61.44H573.44v61.44z m0 143.36h245.76v-61.44H573.44V711.68z m-290.44736-165.80608L210.57536 618.2912l43.45856 43.43808 72.3968-72.41728 136.33536 136.33536 43.43808-43.43808-179.77344-179.77344-43.43808 43.43808zM348.16 322.56a122.88 122.88 0 1 0 0-245.76 122.88 122.88 0 0 0 0 245.76z m0-184.32a61.44 61.44 0 1 1 0 122.88 61.44 61.44 0 0 1 0-122.88z"  horiz-adv-x="1024" />

    
    <glyph glyph-name="zhengjianhao" unicode="&#59279;" d="M936.8576 783.5648H87.1424c-46.08 0-87.1424-38.7072-87.1424-82.3296v-634.5728c0-43.6224 41.0624-82.3296 87.1424-82.3296h849.7152c46.1824 0 87.1424 38.7072 87.1424 82.3296V706.1504c0 43.52-41.0624 77.4144-87.1424 77.4144zM265.9328 614.0928c25.6 24.2688 61.5424 33.8944 92.2624 33.8944 30.72 0 66.6624-14.5408 92.2624-38.7072 25.6-24.2688 40.96-53.248 40.96-87.1424 0-33.8944-15.36-62.976-40.96-87.1424-25.6-24.2688-56.4224-33.8944-92.2624-33.8944-35.84 0-66.6624 14.5408-92.2624 33.8944-25.6 19.3536-35.84 58.1632-35.84 92.0576 0 33.792 10.24 62.7712 35.84 87.04z m312.7296-445.6448c0-19.3536-20.48-38.7072-41.0624-38.7072H183.9104c-25.6 0-40.96 19.3536-40.96 38.7072V231.424c0 72.704 66.6624 135.5776 143.5648 135.5776H435.2c76.9024 0 143.5648-62.976 143.5648-135.5776v-62.976z m307.5072 53.248c0-24.2688-20.48-38.7072-41.0624-38.7072H706.7648c-25.6 0-40.96 19.3536-40.96 38.7072 0 24.1664 20.48 38.7072 40.96 38.7072h138.4448c20.48 0.1024 40.96-19.2512 40.96-38.7072z m0 164.7616c0-24.2688-20.48-38.7072-41.0624-38.7072H660.6848c-25.6 0-41.0624 19.3536-41.0624 38.7072 0 24.2688 20.48 38.7072 41.0624 38.7072h184.5248c20.48 0 40.96-14.5408 40.96-38.7072z m0 164.6592c0-24.2688-20.48-38.7072-41.0624-38.7072H624.7424c-25.6 0-40.96 19.3536-40.96 38.7072 0 24.1664 20.48 38.7072 40.96 38.7072h220.4672c20.48 4.9152 40.96-14.5408 40.96-38.7072z m0 0"  horiz-adv-x="1024" />

    
    <glyph glyph-name="yonghu" unicode="&#58906;" d="M324.880627 450.206409a266.18317 266.18317 0 0 1 287.938525-56.563924 260.347616 260.347616 0 0 1 0 482.968886 273.272856 273.272856 0 0 1-202.196831 0A261.806504 261.806504 0 0 1 252.704037 685.932082a258.760755 258.760755 0 0 1 72.17659-235.725673z m398.506919-136.162929H300.053927a221.034409 221.034409 0 1 1 0-442.01763h423.333619a221.034409 221.034409 0 1 1 0 442.01763z m0 0"  horiz-adv-x="1024" />

    
    <glyph glyph-name="yinzhang" unicode="&#58923;" d="M937.246811 12.849695a113.588464 113.588464 0 0 1-118.132002 104.501387H203.465336A113.588464 113.588464 0 0 1 85.333333 12.849695v-113.588464c0-19.877981 26.693289-27.261231 46.57127-27.261231h758.770938c19.877981 0 46.57127 7.38325 46.57127 27.261231v113.588464z m-544.088741 431.636162v-19.877981c23.285635-23.853577 18.174154-51.114809 18.174154-80.647809s5.111481-56.794232-18.174154-80.64781v-3.407654h-9.087077A84.055463 84.055463 0 0 1 312.510261 186.072102h397.559623a85.75929 85.75929 0 0 1-71.560733 73.264559H624.878536v3.407654c-23.285635 23.853577-18.174154 51.114809-18.174154 80.647809s-5.111481 56.794232 18.174154 80.647809v19.877982a244.215197 244.215197 0 0 1 121.539656 212.410427 237.967831 237.967831 0 1 1-475.935663 0 243.079312 243.079312 0 0 1 122.675541-211.842485z"  horiz-adv-x="1024" />

    
    <glyph glyph-name="bumen" unicode="&#58886;" d="M384 646.144V761.856c0 38.912-31.232 70.144-70.144 70.144H134.144c-38.912 0-70.144-31.232-70.144-70.144v-116.224c0-38.912 31.232-70.144 70.144-70.144h180.224c38.4 0.512 69.632 31.744 69.632 70.656z m505.856-454.144h-180.224c-38.912 0-70.144-31.232-70.144-70.144v-116.224c0-38.912 31.232-70.144 70.144-70.144h180.224c38.912 0 70.144 31.232 70.144 70.144v116.224c0 38.912-31.232 70.144-70.144 70.144z m0 320h-180.224c-38.912 0-70.144-31.232-70.144-70.144v-116.224c0-38.912 31.232-70.144 70.144-70.144h180.224c38.912 0 70.144 31.232 70.144 70.144V441.856c0 38.912-31.232 70.144-70.144 70.144z m-353.792-119.808H264.192V472.064c0 22.016-17.92 39.936-39.936 39.936S184.32 494.08 184.32 472.064v-432.128c0-22.016 17.92-39.936 39.936-39.936h311.808c22.016 0 39.936 17.92 39.936 39.936s-17.92 39.936-39.936 39.936H264.192v231.936h271.872c22.016 0 39.936 17.92 39.936 39.936s-17.92 40.448-39.936 40.448z"  horiz-adv-x="1024" />

    
    <glyph glyph-name="tongbu" unicode="&#59101;" d="M554.75 105.74999971a252.74999971 252.74999971 0 0 0-318.75000029 318.00000058 74.99999971 74.99999971 0 0 1-142.49999971 45.74999971 402.75 402.75 0 0 1 506.99999971-506.99999971 74.99999971 74.99999971 0 0 1-45.74999971 142.49999971zM469.25 658.5a252.74999971 252.74999971 0 0 0 318.75000029-317.99999971 74.99999971 74.99999971 0 1 1 142.49999971-45.75000058A402.75 402.75 0 0 1 423.50000029 800.99999971a74.99999971 74.99999971 0 0 1 45.74999971-142.49999971zM335.75000029 453.75a74.99999971 74.99999971 0 0 1 106.49999971 106.49999971L197 805.49999971A74.99999971 74.99999971 0 0 1 90.50000029 699zM933.49999971 69L688.24999971 314.25a74.99999971 74.99999971 0 0 1-106.49999971-106.49999971l245.25-245.25a74.99999971 74.99999971 0 0 1 105.75 105.75z"  horiz-adv-x="1024" />

    
    <glyph glyph-name="biaodanguanli" unicode="&#59043;" d="M821.8 781.5h-18.1v-1.4c0-53.9-46.4-97.8-103.5-97.8H323.7c-57.1 0-103.5 43.8-103.5 97.8v1.4h-18.1c-75.7 0-137.7-58.5-137.7-130v-585c0-71.5 62-130 137.7-130h619.6c75.7 0 137.7 58.5 137.7 130v585c0.1 71.5-61.9 130-137.6 130z m-241-497.1H305.5c-19.3 0-34.4 14.3-34.4 32.5s15.1 32.5 34.4 32.5h275.4c19.3 0 34.4-14.3 34.4-32.5s-15.2-32.5-34.5-32.5z m137.7 181.3h-413c-19.3 0-34.4 14.3-34.4 32.5s15.1 32.5 34.4 32.5h413.1c19.3 0 34.4-14.3 34.4-32.5s-15.2-32.5-34.5-32.5z m-394.8 263h376.5c29.9 0 54.5 23.1 54.5 51.4 0 28.3-24.5 51.4-54.5 51.4H323.7c-29.9 0-54.5-23.1-54.5-51.4 0.1-28.3 24.6-51.4 54.5-51.4z"  horiz-adv-x="1024" />

    
    <glyph glyph-name="shixiangliebiao" unicode="&#58893;" d="M984.698051 698.108546H630.826987c-21.8003 0-39.301949 17.501649-39.30195 39.301949s17.501649 39.301949 39.30195 39.301949h353.717541c21.8003 0 39.301949-17.501649 39.301949-39.301949 0.153523-21.646777-17.348126-39.301949-39.148426-39.301949zM984.698051 501.752324H630.826987c-21.8003 0-39.301949 17.501649-39.30195 39.301949 0 21.8003 17.501649 39.301949 39.30195 39.301949h353.717541c21.8003 0 39.301949-17.501649 39.301949-39.301949 0-21.8003-17.348126-39.301949-39.148426-39.301949zM984.698051 187.183208H630.826987c-21.8003 0-39.301949 17.501649-39.30195 39.301949 0 21.8003 17.501649 39.301949 39.30195 39.301949h353.717541c21.8003 0 39.301949-17.501649 39.301949-39.301949 0-21.8003-17.348126-39.301949-39.148426-39.301949zM983.162819-9.326537H629.291754c-21.8003 0-39.301949 17.501649-39.301949 39.301949 0 21.8003 17.501649 39.301949 39.301949 39.301949h353.717541c21.8003 0 39.301949-17.501649 39.301949-39.301949 0-21.8003-17.348126-39.301949-39.148425-39.301949zM355.713343 423.148426H120.055172c-65.093853 0-117.905847 52.811994-117.905847 117.905847V776.712444C2.149325 841.806297 54.961319 894.618291 120.055172 894.618291h235.811695c65.093853 0 117.905847-52.811994 117.905847-117.905847v-235.811694c-0.153523-64.94033-52.965517-117.752324-118.059371-117.752324zM120.055172 816.014393c-21.493253 0-39.301949-17.808696-39.301949-39.301949v-235.811694c0-21.493253 17.808696-39.301949 39.301949-39.301949h235.811695c21.493253 0 39.301949 17.808696 39.301949 39.301949V776.712444c0 21.493253-17.808696 39.301949-39.301949 39.301949H120.055172zM355.713343-127.232384H120.055172c-65.093853 0-117.905847 52.811994-117.905847 117.905847V226.638681c0 65.093853 52.811994 117.905847 117.905847 117.905847h235.811695c65.093853 0 117.905847-52.811994 117.905847-117.905847v-235.811694c-0.153523-65.093853-52.965517-118.05937-118.059371-118.059371zM120.055172 265.94063c-21.493253 0-39.301949-17.501649-39.301949-39.301949v-235.811694c0-21.8003 17.808696-39.301949 39.301949-39.30195h235.811695c21.493253 0 39.301949 17.501649 39.301949 39.30195V226.638681c0 21.8003-17.808696 39.301949-39.301949 39.301949H120.055172z"  horiz-adv-x="1024" />

    
    <glyph glyph-name="chakanquxiantu" unicode="&#59046;" d="M957.23008 9.49248H130.32448V833.39264C130.32448 867.968 102.08256 896 67.24096 896S4.16256 867.968 4.16256 833.39264v-888.6272c0-33.93536 27.50976-61.44 61.44-61.44H957.22496c34.57024 0 62.60224 28.24704 62.60224 63.0784 0.00512 34.8416-28.02688 63.08864-62.59712 63.08864zM515.00544 554.24c23.99744-23.99744 23.99232-62.8992 0-86.8864l-211.54816-211.54816c-23.99232-23.99232-62.89408-23.99744-86.8864 0l-2.32448 2.32448c-23.99232 23.99232-23.99232 62.89408 0 86.89152l211.54816 211.54304c23.99232 23.99232 62.8992 23.99232 86.89152 0l2.31936-2.32448zM933.4528 554.24512c24.00256-24.00256 23.99744-62.8992 0-86.89152l-211.54304-211.54304c-23.99744-23.99744-62.88896-24.00256-86.89152-0.00512l-2.31936 2.31936c-23.99744 23.99744-23.99744 62.8992 0.00512 86.89664l211.54304 211.54304c23.99232 23.99232 62.89408 23.99232 86.89152 0l2.31424-2.31936zM721.90976 255.80544c-24.00256-23.99744-62.8992-23.99232-86.89152 0L423.47008 467.3536c-23.99232 23.99232-23.99744 62.88896 0 86.8864l2.32448 2.32448c23.99232 23.99232 62.89408 23.99232 86.8864 0l211.54304-211.54816c23.99744-23.99232 23.99744-62.89408 0.00512-86.8864l-2.31936-2.32448z"  horiz-adv-x="1024" />

    
    <glyph glyph-name="chaxun" unicode="&#58909;" d="M474.49999971 8.999999709999997a412.49999971 412.49999971 0 1 0 0 825.00000029 412.49999971 412.49999971 0 0 0 0-825.00000029z m0 150.00000029a262.50000029 262.50000029 0 1 1 0 524.99999971 262.50000029 262.50000029 0 0 1 0-524.99999971z m295.12500029 74.99999971l162.15000029-162.14999942a74.99999971 74.99999971 0 0 0 0-106.12500029l-1.50000029-1.50000029a74.99999971 74.99999971 0 0 0-106.12500029 0L662.00000029 126.375 769.625 233.99999971z"  horiz-adv-x="1024" />

    
    <glyph glyph-name="fenpei" unicode="&#58895;" d="M921.6 247.46666667h-34.13333333V384H546.13333333v68.26666667h102.4a68.46933333 68.46933333 0 0 1 68.26666667 68.26666666V657.06666667a68.46933333 68.46933333 0 0 1-68.26666667 68.26666666H375.46666667a68.46933333 68.46933333 0 0 1-68.26666667-68.26666666v-136.53333334a68.46933333 68.46933333 0 0 1 68.26666667-68.26666666h102.4v-68.26666667H136.53333333v-136.53333333h-34.13333333a68.46933333 68.46933333 0 0 1-68.26666667-68.26666667v-68.26666667a68.46933333 68.46933333 0 0 1 68.26666667-68.26666666h136.53333333a68.46933333 68.46933333 0 0 1 68.26666667 68.26666666v68.26666667a68.46933333 68.46933333 0 0 1-68.26666667 68.26666667h-34.13333333v68.26666666h273.06666667v-68.26666666h-34.13333334a68.46933333 68.46933333 0 0 1-68.26666666-68.26666667v-68.26666667a68.46933333 68.46933333 0 0 1 68.26666666-68.26666666h136.53333334a68.46933333 68.46933333 0 0 1 68.26666666 68.26666666v68.26666667a68.46933333 68.46933333 0 0 1-68.26666666 68.26666667h-34.13333334v68.26666666h273.06666667v-68.26666666h-34.13333333a68.46933333 68.46933333 0 0 1-68.26666667-68.26666667v-68.26666667a68.46933333 68.46933333 0 0 1 68.26666667-68.26666666h136.53333333a68.46933333 68.46933333 0 0 1 68.26666667 68.26666666v68.26666667a68.46933333 68.46933333 0 0 1-68.26666667 68.26666667z"  horiz-adv-x="1024" />

    
    <glyph glyph-name="duanxin" unicode="&#59007;" d="M82.25 59.549999999999955a28.29375 28.29375 0 0 1 5.2875 3.6l323.8875 282.4875 68.0625-46.35c19.96875-13.6125 46.18125-13.725 66.15-0.225l73.29375 49.55625 321.80625-289.9125A56.025 56.025 0 0 0 905.75 46.5H118.25a56.025 56.025 0 0 0-36 13.05zM62 115.57500000000005V583.85625l24.24375-16.59375L363.3875 378.375 62 115.57500000000005z m900-0.28125l-295.0875 265.78125 265.33125 179.4375 29.75625 19.6875v-464.90625z m0 531.45a27.95625 27.95625 0 0 1-5.7375-2.925l-55.18125-36.45-386.60625-261.50625c-0.84375-0.5625-1.96875-0.5625-2.98125 0.1125L117.96875 613.725l-51.8625 35.4375A28.35 28.35 0 0 1 62 651.525V665.25a56.25 56.25 0 0 0 56.25 56.25h787.5a56.25 56.25 0 0 0 56.25-56.25v-18.5625z"  horiz-adv-x="1024" />

    
    <glyph glyph-name="jiaose" unicode="&#58965;" d="M512 366.933333c137.216 0 248.490667 158.173867 248.490667 290.133334C760.490667 789.026133 649.216 896 512 896 374.784 896 263.509333 789.026133 263.509333 657.066667S374.784 366.933333 512 366.933333zM68.266667 59.528533c0 64.512 48.674133 140.219733 108.817066 169.028267L287.5392 281.6l83.7632-277.640533s2.321067-24.029867 44.168533-24.029867 41.847467 24.029867 41.847467 24.029867V230.4S459.229867 281.6 513.774933 281.6c54.613333 0 54.613333-51.2 54.613334-51.2v-226.440533s14.199467-28.4672 47.991466-28.4672 37.888 28.4672 37.888 28.4672L736.187733 281.6l110.728534-53.0432c60.074667-28.808533 108.817067-104.448 108.817066-169.028267v-70.656c0-64.512-54.408533-116.872533-121.514666-116.872533H189.781333C122.743467-128 68.266667-75.639467 68.266667-11.127467v70.656z"  horiz-adv-x="1024" />

    
    <glyph glyph-name="baseline-save-px" unicode="&#58964;" d="M754.72592555 820.90666667H172.18370333a97.09036999 97.09036999 0 0 1-97.09037-97.09037v-679.63259334a97.09036999 97.09036999 0 0 1 97.09037-97.09037h679.63259334c53.39970333 0 97.09036999 43.69066667 97.09037 97.09037V626.72592555l-194.18074112 194.18074112z m-242.72592555-776.72296334c-80.58500779 0-145.63555555 65.05054777-145.63555555 145.63555555s65.05054777 145.63555555 145.63555555 145.63555555 145.63555555-65.05054777 145.63555555-145.63555555-65.05054777-145.63555555-145.63555555-145.63555555z m145.63555555 485.45185222H172.18370333V723.81629667h485.45185222v-194.18074112z"  horiz-adv-x="1024" />

    
    <glyph glyph-name="briefcase" unicode="&#59294;" d="M624.5 243.375c0-15.46875-12.65625-28.125-28.125-28.125h-168.75c-15.46875 0-28.125 12.65625-28.125 28.125v84.375H62v-253.125c0-45 39.375-84.375 84.375-84.375h731.25c45 0 84.375 39.375 84.375 84.375V327.75H624.5v-84.375z m253.125 365.625h-140.625V693.375c0 45-39.375 84.375-84.375 84.375H371.375c-45 0-84.375-39.375-84.375-84.375v-84.375H146.375c-45 0-84.375-39.375-84.375-84.375v-140.625h900v140.625c0 45-39.375 84.375-84.375 84.375z m-253.125 0H399.5V665.25h225v-56.25z"  horiz-adv-x="1024" />

    
    <glyph glyph-name="wentifankui" unicode="&#58914;" d="M959.24048487 330.22319473000005l96.19480722-96.19480723a1.65902695 1.65902695 0 0 0 0-2.34586406L810.24769883-13.505068940000001l-98.54177695 98.5406704 245.18759325 245.18759327a1.65902695 1.65902695 0 0 0 2.34696974 0zM659.21652177-66l18.02809249 67.31225333 18.03915352 67.30119315 49.2730998-49.2730998 49.27310068-49.27310069-67.31225332-18.02809336-67.30119317-18.03915263zM754.30088633 834H131.22566474A69.43580771 69.43580771 0 0 1 62 764.77433526v-761.53761036a69.43580771 69.43580771 0 0 1 69.22566474-69.2367249H480.84900401l342.68860635 342.69966738V764.77433526A69.43580771 69.43580771 0 0 1 754.30088633 834zM436.2432998 131.07028154a46.28685146 46.28685146 0 1 0 46.28685147 46.28685146 46.28685146 46.28685146 0 0 0-46.28685146-46.28685146z m67.99798389 267.75588955c-28.46890283-31.18970654-31.41091055-101.75365283-31.41090966-101.75365283q-3.31805391-39.89406797-36.58707422-39.905129-36.63131484 0-36.5870751 39.905129S402.54293164 359.94963925 419.24380362 389.38077744c19.90832344 34.96122773 36.15572724 55.59952324 61.01901122 75.93919365 19.62075849 16.03726084 55.74330527 24.71950195 55.74330527 77.93002618q-6.71352891 86.46848438-99.78494149 93.1267125-76.55856328 0-96.45582657-69.84503438-13.27221563-33.26902031-33.2469-29.92884609-39.91618828 3.31805391-36.58707422 39.90512812 16.59026953 113.05715625 166.28980079 129.70272656 166.28980166-13.27221563 179.59519774-156.31351875C613.61540088 458.96036807 536.48170771 434.17450518 504.24128369 398.82617109z"  horiz-adv-x="1130" />

    
    <glyph glyph-name="caidan" unicode="&#58892;" d="M876.905 465.729H391.653c-45.835 0-82.7-37.863-82.7-82.704 0-44.837 36.865-82.701 82.7-82.701h485.252c45.833 0 82.7 37.864 82.7 82.7 0.995 45.835-36.868 82.705-82.7 82.705zM391.653 586.29h485.252c45.833 0 82.7 37.862 82.7 82.704 0 44.837-37.865 82.7-82.7 82.7H391.653c-45.835 0-82.7-37.863-82.7-82.7 0-44.842 36.865-82.704 82.7-82.704zM146.537 465.729c-45.834 0-82.699-37.863-82.699-82.704 0-44.837 36.865-82.701 82.7-82.701s82.704 37.864 82.704 82.7c0 44.842-36.869 82.705-82.705 82.705z m0-285.973c-45.834 0-82.699-37.863-82.699-82.698 0-45.836 36.865-82.7 82.7-82.7s82.704 37.863 82.704 82.7c0 44.835-36.869 82.698-82.705 82.698z m730.368 0H391.653c-45.835 0-82.7-37.863-82.7-82.698 0-45.836 36.865-82.7 82.7-82.7h485.252c45.833 0 82.7 37.863 82.7 82.7 0.995 44.835-36.868 82.698-82.7 82.698z m-730.368 568.95c-45.834 0-82.699-36.87-82.699-82.704 0-45.83 36.865-83.698 82.7-83.698s82.704 37.867 82.704 82.704c0 44.838-36.869 83.698-82.705 83.698z m0-120.567"  horiz-adv-x="1024" />

    
    <glyph glyph-name="bumen1" unicode="&#58918;" d="M32.003 142.029c-0.38 73.423 37.47 141.637 99.651 179.589C190.007 357.372 266.449 384 361.917 384c95.408 0 171.851-26.594 230.211-62.33 62.255-37.95 100.148-106.225 99.742-179.711-0.078-16.894-0.22-34.115-0.407-50.02-0.677-37.936-23.668-71.808-58.44-86.096C571.277-19.328 481.492-32 361.918-32c-119.55 0-209.324 12.667-271.056 37.867-34.772 14.282-57.76 48.156-58.426 86.09-0.217 15.922-0.347 33.162-0.432 50.072z m623.534 192.116c29.326 22.012 64.738 36.39 103.507 40.086a235.816 235.816 0 0 0 22.995 1.102c7.9 0 15.595-0.374 23.087-1.093 106.424-10.175 187.526-100.84 186.87-208.898-0.066-9.52-0.122-19.044-0.197-28.15-0.497-39.428-25.08-74.432-61.744-87.897-37.338-13.722-86.478-20.628-148.016-20.628-13.426 0-26.262 0.328-38.514 0.985a95.522 95.522 0 0 1 7.705 35.74c0.379 28.275 0.628 61.311 0.769 91.697 0.075 67.091-31.788 130.121-85.62 169.367a476.547 476.547 0 0 1-10.842 7.69z m126.531 387.856c82.808 0 150.038-67.96 150.038-151.667 0-83.708-67.23-151.667-150.038-151.667-82.807 0-150.037 67.96-150.037 151.667C632.03 654.04 699.26 722 782.068 722zM361.963 800c99.37 0 180.045-81.551 180.045-182 0-100.448-80.675-182-180.045-182-99.37 0-180.045 81.552-180.045 182 0 100.449 80.676 182 180.045 182z"  horiz-adv-x="1024" />

    
    <glyph glyph-name="xinxi1" unicode="&#59031;" d="M725.39 692.0385H166.9445C109.0205 692.0385 62 645.018 62 587.085v-366.2595c0-58.0275 47.0205-105.048 104.9445-105.048h87.138v-143.5635c0-20.007 22.806-31.4145 38.8125-19.413l217.305 162.981h215.19c58.0275 0 104.9535 47.0205 104.9535 104.9535V587.085c0 57.933-47.0205 104.9535-104.9535 104.9535zM255.788 353.08950000000004c-26.514 0-48.0195 21.51-48.0195 48.024s21.51 48.0195 48.0195 48.0195 48.0195-21.51 48.0195-48.0195-21.5055-48.024-48.0195-48.024z m192.087 0c-26.514 0-48.0195 21.51-48.0195 48.024s21.51 48.0195 48.0195 48.0195 48.0195-21.51 48.0195-48.0195-21.5055-48.024-48.0195-48.024z m192.087 0c-26.514 0-48.0195 21.51-48.0195 48.024s21.5055 48.0195 48.0195 48.0195 48.024-21.51 48.024-48.0195-21.5145-48.024-48.024-48.024zM753.8075 724.0515c59.931 0 108.549-48.618 108.549-108.549v-371.259c53.82 4.5 96.0435 49.5225 96.0435 104.544V679.4385c0 77.625-63.0315 140.6565-140.6565 140.6565H295.001c-54.9225 0-99.9405-42.2235-104.544-96.0435h563.3505z"  horiz-adv-x="1024" />

    


  </font>
</defs>
</svg>
